<svg width="28" height="28" viewBox="0 0 28 28" fill="none" xmlns="http://www.w3.org/2000/svg">
<g clip-path="url(#clip0)">
<path d="M27.5066 16.7278L10.366 9.28671C10.0568 9.1525 9.69738 9.22092 9.45927 9.45913C9.22111 9.6973 9.15275 10.0569 9.28684 10.3659L16.728 27.5063C16.8589 27.808 17.1559 28 17.4801 28C17.5046 28 17.5292 27.9989 17.5541 27.9967C17.9063 27.9649 18.1986 27.711 18.2792 27.3666L20.0029 20.0026L27.3669 18.279C27.7113 18.1984 27.9652 17.9061 27.9969 17.5538C28.0287 17.2015 27.831 16.8687 27.5066 16.7278ZM19.1331 18.5212C18.8295 18.5923 18.5924 18.8294 18.5213 19.133L17.2463 24.5805L11.6196 11.6196L24.5806 17.2462L19.1331 18.5212Z" fill="white"/>
<path d="M10.6641 6.5625C11.1171 6.5625 11.4844 6.19522 11.4844 5.74219V0.820312C11.4844 0.367281 11.1171 0 10.6641 0C10.211 0 9.84375 0.367281 9.84375 0.820312V5.74219C9.84375 6.19522 10.211 6.5625 10.6641 6.5625Z" fill="white"/>
<path d="M6.60388 13.5643L3.12357 17.0446C2.80321 17.365 2.80321 17.8844 3.12357 18.2047C3.44387 18.5251 3.96335 18.5251 4.28366 18.2047L7.76397 14.7244C8.08433 14.404 8.08433 13.8847 7.76397 13.5643C7.44361 13.2439 6.92419 13.2439 6.60388 13.5643Z" fill="white"/>
<path d="M14.7246 7.76381L18.2049 4.2835C18.5252 3.96314 18.5252 3.44378 18.2049 3.12342C17.8846 2.80306 17.3652 2.80306 17.0448 3.12342L13.5645 6.60373C13.2441 6.92408 13.2441 7.44345 13.5645 7.76381C13.8848 8.08417 14.4043 8.08417 14.7246 7.76381Z" fill="white"/>
<path d="M4.28366 3.12342C3.96335 2.80306 3.44393 2.80306 3.12357 3.12342C2.80321 3.44378 2.80321 3.96314 3.12357 4.2835L6.60388 7.76381C6.92419 8.08417 7.44366 8.08417 7.76397 7.76381C8.08433 7.44345 8.08433 6.92408 7.76397 6.60373L4.28366 3.12342Z" fill="white"/>
<path d="M6.5625 10.6641C6.5625 10.211 6.19522 9.84375 5.74219 9.84375H0.820312C0.367281 9.84375 0 10.211 0 10.6641C0 11.1171 0.367281 11.4844 0.820312 11.4844H5.74219C6.19522 11.4844 6.5625 11.1171 6.5625 10.6641Z" fill="white"/>
</g>
<defs>
<clipPath id="clip0">
<rect width="28" height="28" fill="white"/>
</clipPath>
</defs>
</svg>
