<svg width="78" height="78" viewBox="0 0 78 78" fill="none" xmlns="http://www.w3.org/2000/svg">
<path d="M55.9228 28.5772C54.6553 27.3081 52.5948 27.3081 51.3273 28.5772L37.3751 42.5279L31.5478 36.7022C30.2803 35.4331 28.2198 35.4331 26.9523 36.7022C25.6832 37.9714 25.6832 40.0286 26.9523 41.2977L35.0773 49.4227C35.7111 50.0581 36.5431 50.375 37.3751 50.375C38.2071 50.375 39.0391 50.0581 39.6728 49.4227L55.9228 33.1727C57.192 31.9036 57.192 29.8464 55.9228 28.5772Z" fill="#BF3A3A"/>
<path d="M74.75 35.75C72.956 35.75 71.5 37.206 71.5 39C71.5 56.9205 56.9205 71.5 39 71.5C21.0795 71.5 6.5 56.9205 6.5 39C6.5 21.0795 21.0795 6.5 39 6.5C47.7246 6.5 55.9146 9.90925 62.0636 16.1005C63.3263 17.3761 65.3851 17.3826 66.6591 16.1168C67.9331 14.8525 67.9396 12.7952 66.6754 11.5212C59.2979 4.09175 49.4683 0 39 0C17.4947 0 0 17.4947 0 39C0 60.5052 17.4947 78 39 78C60.5052 78 78 60.5052 78 39C78 37.206 76.544 35.75 74.75 35.75Z" fill="#BF3A3A"/>
</svg>
