<svg width="34" height="34" viewBox="0 0 34 34" fill="none" xmlns="http://www.w3.org/2000/svg">
<path d="M26.3672 13.9539H25.3681V8.36816C25.3681 3.75388 21.6142 0 16.9999 0C12.3856 0 8.63174 3.75388 8.63174 8.36816V13.9539H7.63255C5.44684 13.9539 3.66357 15.7302 3.66357 17.9229V30.031C3.66357 32.2167 5.4399 34 7.63255 34H26.3672C28.553 34 30.3362 32.2237 30.3362 30.031V17.9229C30.3293 15.7302 28.553 13.9539 26.3672 13.9539ZM11.0117 8.36816C11.0117 5.06531 13.697 2.38 16.9999 2.38C20.3028 2.38 22.9881 5.06531 22.9881 8.36816V13.9539H11.0117V8.36816ZM27.9493 30.0241C27.9493 30.8984 27.2346 31.6131 26.3603 31.6131H7.63255C6.75827 31.6131 6.04357 30.8984 6.04357 30.0241V17.9229C6.04357 17.0486 6.75827 16.3339 7.63255 16.3339H26.3672C27.2415 16.3339 27.9562 17.0486 27.9562 17.9229V30.0241H27.9493Z" fill="#28303B"/>
<path d="M16.9998 21.3159C16.3406 21.3159 15.8132 21.8502 15.8132 22.5094V25.5833C15.8132 26.2425 16.3475 26.7698 16.9998 26.7698C17.6589 26.7698 18.1932 26.2355 18.1932 25.5833V22.5094C18.1863 21.8502 17.6589 21.3159 16.9998 21.3159Z" fill="#28303B"/>
</svg>
