<svg width="25" height="25" viewBox="0 0 25 25" fill="none" xmlns="http://www.w3.org/2000/svg">
<path d="M1.86709 0C1.63732 0 1.46612 0.18724 1.48651 0.416089L3.42358 22.1435C3.44397 22.3724 3.64173 22.6099 3.86323 22.6714L12.0832 24.9537C12.3046 25.0152 12.6669 25.0152 12.8883 24.9539L21.1333 22.6678C21.3547 22.6064 21.5527 22.3689 21.5731 22.1401L23.5133 0.416089C23.5339 0.18724 23.3625 0 23.1327 0H1.86709ZM19.3881 4.98312C19.3698 5.18724 19.3381 5.54158 19.3178 5.77043L19.2667 6.34051C19.2461 6.56927 19.2169 6.89646 19.2015 7.06749C19.1861 7.23861 19.1715 7.37856 19.1688 7.37856C19.1662 7.37856 18.976 7.37856 18.7463 7.37856H12.9177C12.6879 7.37856 12.498 7.37856 12.4955 7.37856C12.493 7.37856 12.3029 7.37856 12.0731 7.37856H9.00343C8.77366 7.37856 8.60247 7.5658 8.62285 7.79465L8.8019 9.79613C8.82229 10.0249 9.02708 10.2122 9.25684 10.2122H12.0732C12.303 10.2122 12.4931 10.2122 12.4956 10.2122C12.4981 10.2122 12.688 10.2122 12.9178 10.2122H17.7587C17.9884 10.2122 18.344 10.2122 18.5488 10.2122C18.7534 10.2122 18.9058 10.3792 18.8873 10.5834C18.8687 10.7875 18.8368 11.1419 18.8164 11.3707L18.2407 17.8232C18.2201 18.0521 18.1941 18.3444 18.183 18.4729C18.1715 18.6013 17.9811 18.7567 17.7597 18.8181L12.9025 20.1648C12.6811 20.2262 12.4972 20.277 12.4937 20.2777C12.4903 20.2785 12.3064 20.2288 12.0849 20.1674L7.2226 18.8182C7.00119 18.7567 6.80334 18.5192 6.78295 18.2904L6.46997 14.7774C6.44958 14.5486 6.62095 14.3613 6.85071 14.3613H7.29446C7.52423 14.3613 7.90021 14.3613 8.12998 14.3613H8.79171C9.02148 14.3613 9.2261 14.5486 9.24665 14.7774L9.36939 16.1526C9.38978 16.3814 9.58788 16.6176 9.80979 16.6776L12.0842 17.2917C12.3059 17.3517 12.4882 17.4007 12.4892 17.4007C12.4902 17.4007 12.6724 17.3516 12.8943 17.2917L15.1727 16.676C15.3945 16.6161 15.5928 16.3798 15.6133 16.151L15.8604 13.3958C15.8809 13.167 15.7097 12.9797 15.48 12.9797H12.9178C12.688 12.9797 12.4981 12.9797 12.4956 12.9797C12.4931 12.9797 12.303 12.9797 12.0732 12.9797H6.72681C6.49704 12.9797 6.29242 12.7924 6.27203 12.5636L5.66578 5.77035C5.64539 5.5415 5.61373 5.18724 5.59543 4.98304C5.5773 4.77892 5.75033 4.6119 5.9801 4.6119H12.0732C12.303 4.6119 12.4931 4.6119 12.4956 4.6119C12.4981 4.6119 12.688 4.6119 12.9178 4.6119H19.0035C19.2332 4.6119 19.4063 4.77892 19.3881 4.98312Z" fill="#0760A0"/>
</svg>
