<svg width="25" height="25" viewBox="0 0 25 25" fill="none" xmlns="http://www.w3.org/2000/svg">
<g clip-path="url(#clip0)">
<path d="M22.6782 0H2.32121C1.83358 0 1.46774 0.412631 1.51076 0.900205L3.37012 21.7365C3.4132 22.2237 3.83459 22.7337 4.30724 22.8653L11.6371 24.9014C12.1091 25.0322 12.8806 25.0331 13.3533 24.9031L20.6922 22.8699C21.165 22.7386 21.5864 22.2333 21.6294 21.7452L23.4896 0.900205C23.5326 0.412631 23.1683 0 22.6782 0ZM19.1477 7.52132C19.1474 7.52451 19.1449 7.52701 19.1418 7.52754C19.1386 7.52807 19.1355 7.52642 19.1341 7.52345L13.3914 9.87681C13.3096 9.91033 13.263 9.99706 13.28 10.0838C13.2971 10.1705 13.3731 10.2331 13.4616 10.2331H17.9285C18.1661 10.2331 18.3925 10.334 18.5514 10.5107C18.7102 10.6874 18.7866 10.9233 18.7614 11.1595L18.0634 17.7069C18.0292 18.0281 17.8133 18.301 17.5086 18.4082L12.7673 20.0765C12.5887 20.1394 12.394 20.1399 12.2151 20.0778L7.4959 18.4431C7.18929 18.3369 6.97163 18.0632 6.93716 17.7406L6.62077 14.7754C6.60415 14.6197 6.65444 14.4643 6.75907 14.3479C6.86376 14.2315 7.0129 14.165 7.16947 14.165H8.48268C8.76487 14.165 9.00154 14.3778 9.03139 14.6584L9.22551 16.481L12.493 17.6168L15.7756 16.4706L16.177 12.6906H6.896C6.61466 12.6906 6.37836 12.479 6.34751 12.1993L6.1708 10.5972C6.14382 10.3529 6.2817 10.1202 6.50891 10.0265L12.4489 7.57757C12.5163 7.54979 12.5546 7.47835 12.5404 7.40687C12.5262 7.33543 12.4636 7.28396 12.3908 7.28396H6.13686C5.94858 7.28396 5.79067 7.14178 5.77102 6.95461L5.59012 5.23265C5.57923 5.12903 5.61285 5.02562 5.68259 4.94813C5.75233 4.87069 5.8517 4.82645 5.95591 4.82645H19.0417C19.1465 4.82645 19.2463 4.87117 19.3161 4.94929C19.3859 5.02748 19.419 5.13168 19.4072 5.23578L19.1477 7.52132Z" fill="#0760A0"/>
</g>
<defs>
<clipPath id="clip0">
<rect width="25" height="25" fill="white"/>
</clipPath>
</defs>
</svg>
