<svg width="25" height="25" viewBox="0 0 25 25" fill="none" xmlns="http://www.w3.org/2000/svg">
<path d="M22.8027 5.9082H22.0703V5.17578C22.0703 3.96421 21.0846 2.97852 19.873 2.97852H3.66211C2.45054 2.97852 1.46484 3.96421 1.46484 5.17578V17.627H0.732422C0.32793 17.627 0 17.9549 0 18.3594V19.8242C0 21.0358 0.985693 22.0215 2.19727 22.0215H22.8027C24.0143 22.0215 25 21.0358 25 19.8242V8.10547C25 6.8939 24.0143 5.9082 22.8027 5.9082ZM2.92969 5.17578C2.92969 4.77192 3.25825 4.44336 3.66211 4.44336H19.873C20.2769 4.44336 20.6055 4.77192 20.6055 5.17578V5.9082H16.9434C15.7318 5.9082 14.7461 6.8939 14.7461 8.10547V17.627H2.92969V5.17578ZM1.46484 19.8242V19.0918H14.7461V19.8242C14.7461 20.081 14.7908 20.3274 14.8721 20.5566H2.19727C1.79341 20.5566 1.46484 20.2281 1.46484 19.8242ZM23.5352 19.8242C23.5352 20.2281 23.2066 20.5566 22.8027 20.5566H16.9434C16.5395 20.5566 16.2109 20.2281 16.2109 19.8242V8.10547C16.2109 7.70161 16.5395 7.37305 16.9434 7.37305H22.8027C23.2066 7.37305 23.5352 7.70161 23.5352 8.10547V19.8242Z" fill="#0760A0"/>
<path d="M20.6055 17.627H19.1406C18.7361 17.627 18.4082 17.9549 18.4082 18.3594C18.4082 18.7639 18.7361 19.0918 19.1406 19.0918H20.6055C21.01 19.0918 21.3379 18.7639 21.3379 18.3594C21.3379 17.9549 21.01 17.627 20.6055 17.627Z" fill="#0760A0"/>
<path d="M19.873 10.3027C20.2776 10.3027 20.6055 9.97482 20.6055 9.57031C20.6055 9.16581 20.2776 8.83789 19.873 8.83789C19.4685 8.83789 19.1406 9.16581 19.1406 9.57031C19.1406 9.97482 19.4685 10.3027 19.873 10.3027Z" fill="#0760A0"/>
</svg>
