<svg width="25" height="25" viewBox="0 0 25 25" fill="none" xmlns="http://www.w3.org/2000/svg">
<path d="M20.7291 23.2578H4.271V25H20.7291V23.2578Z" fill="#0760A0"/>
<path d="M20.729 10.7618H16.5044V4.00449C16.5045 1.79639 14.7081 0 12.5 0C10.2919 0 8.49551 1.79639 8.49551 4.00449V10.7618H4.271V21.793H20.729V10.7618ZM9.96162 4.00449C9.96162 2.60483 11.1003 1.46611 12.5 1.46611C13.8997 1.46611 15.0384 2.60483 15.0384 4.00449V10.7618H9.96162V4.00449ZM9.1458 18.723C8.60264 18.723 8.05479 18.5883 7.72978 18.3887L8.08262 17.5901C8.38906 17.7712 8.79756 17.8873 9.15508 17.8873C9.46616 17.8873 9.57759 17.8223 9.57759 17.7108C9.57759 17.3022 7.78086 17.6319 7.78086 16.4201C7.78086 15.8166 8.28691 15.3245 9.29434 15.3245C9.73076 15.3245 10.1811 15.4173 10.5201 15.6077L10.1904 16.4016C9.87007 16.2391 9.56831 16.1601 9.28511 16.1601C8.96475 16.1601 8.8626 16.253 8.8626 16.3644C8.8626 16.7543 10.6593 16.4294 10.6593 17.6272C10.6594 18.2216 10.1533 18.723 9.1458 18.723ZM12.4281 18.723C11.8849 18.723 11.3371 18.5883 11.0121 18.3887L11.3649 17.5901C11.6713 17.7712 12.0799 17.8873 12.4374 17.8873C12.7484 17.8873 12.8599 17.8223 12.8599 17.7108C12.8599 17.3022 11.0631 17.6319 11.0631 16.4201C11.0631 15.8166 11.5691 15.3245 12.5766 15.3245C13.013 15.3245 13.4634 15.4173 13.8023 15.6077L13.4727 16.4016C13.1523 16.2391 12.8506 16.1601 12.5674 16.1601C12.247 16.1601 12.1449 16.253 12.1449 16.3644C12.1449 16.7543 13.9416 16.4294 13.9416 17.6272C13.9416 18.2216 13.4355 18.723 12.4281 18.723ZM14.4986 18.6487V15.3988H15.5943V17.7991H17.0614V18.6487H14.4986Z" fill="#0760A0"/>
</svg>
