<svg width="25" height="25" viewBox="0 0 25 25" fill="none" xmlns="http://www.w3.org/2000/svg">
<g clip-path="url(#clip0)">
<path d="M24.5604 15.5271L11.2559 9.74598C12.5586 8.23343 13.3736 6.37919 13.6047 4.39452H14.4052C14.8097 4.39452 15.1377 4.06659 15.1377 3.6621V0.732421C15.1377 0.327929 14.8097 0 14.4052 0H11.4756C11.0711 0 10.7431 0.327929 10.7431 0.732421V3.6621C10.7431 4.06659 11.0711 4.39452 11.4756 4.39452H12.128C11.8675 6.29764 10.9758 8.05165 9.57029 9.39681C8.15037 10.7557 6.3349 11.5714 4.3955 11.736V11.2836C4.3955 10.8791 4.06757 10.5512 3.66308 10.5512H0.733397C0.328906 10.5512 0.000976562 10.8791 0.000976562 11.2836V14.2133C0.000976562 14.6178 0.328906 14.9457 0.733397 14.9457H3.66308C4.06757 14.9457 4.3955 14.6178 4.3955 14.2133V13.2059C6.33749 13.0655 8.17782 12.3677 9.71981 11.1926L15.528 24.5595C15.6448 24.828 15.9094 25 16.1996 25C16.523 25 16.8064 24.7886 16.9002 24.4818L18.2297 20.1346C18.5093 19.2208 19.2217 18.5083 20.1355 18.2288L24.4827 16.8993C24.776 16.8096 24.9824 16.5466 24.9997 16.2403C25.0171 15.934 24.8417 15.6494 24.5604 15.5271ZM12.208 1.46484H13.6728V2.92968H12.208V1.46484ZM2.93066 13.4809H1.46582V12.016H2.93066V13.4809ZM19.7071 16.828C18.327 17.2501 17.2511 18.326 16.829 19.7062L16.0802 22.1544L11.4119 11.411L22.1554 16.0793L19.7071 16.828Z" fill="#0760A0"/>
</g>
<defs>
<clipPath id="clip0">
<rect width="25" height="25" fill="white"/>
</clipPath>
</defs>
</svg>
