<svg width="40" height="40" viewBox="0 0 40 40" fill="none" xmlns="http://www.w3.org/2000/svg">
<path d="M20.5301 24.7818C20.3806 24.4668 20.0038 24.3324 19.6888 24.482C19.1761 24.7253 18.6386 24.9264 18.0912 25.0795C17.8623 25.1436 17.6888 25.3307 17.6422 25.5639L16.9741 28.9044C16.9081 29.2342 16.6161 29.4737 16.2797 29.4737H14.4571C14.1207 29.4737 13.8287 29.2343 13.7627 28.9044L13.0946 25.5639C13.048 25.3307 12.8744 25.1436 12.6455 25.0795C11.8723 24.8631 11.126 24.5539 10.4275 24.1605C10.2202 24.0438 9.965 24.0534 9.76719 24.1852L6.93234 26.0751C6.6525 26.2616 6.27672 26.2244 6.03875 25.9866L4.75 24.6977C4.51211 24.4598 4.475 24.0841 4.66148 23.8041L6.55133 20.9693C6.68328 20.7714 6.69289 20.5162 6.57609 20.309C6.18258 19.6104 5.87336 18.8641 5.65703 18.0909C5.59297 17.862 5.40586 17.6884 5.17266 17.6419L1.83219 16.9738C1.50234 16.9078 1.26289 16.6158 1.26289 16.2794V14.4568C1.26289 14.1204 1.50227 13.8284 1.83219 13.7624L5.17266 13.0943C5.40586 13.0477 5.59297 12.8741 5.65703 12.6452C5.87344 11.872 6.18266 11.1257 6.57609 10.4272C6.69281 10.22 6.6832 9.96477 6.55133 9.76688L4.66164 6.93234C4.47508 6.65242 4.51227 6.27672 4.75016 6.03875L6.03891 4.75C6.2768 4.51211 6.65266 4.475 6.9325 4.66148L9.76734 6.55133C9.96516 6.68328 10.2205 6.69281 10.4277 6.57609C11.1262 6.18266 11.8724 5.87344 12.6457 5.65703C12.8747 5.59297 13.0482 5.40586 13.0948 5.17266L13.7629 1.83219C13.8288 1.50234 14.1209 1.26289 14.4573 1.26289H16.2798C16.6163 1.26289 16.9082 1.50227 16.9742 1.83219L17.6423 5.17266C17.689 5.40586 17.8626 5.59297 18.0914 5.65703C18.8647 5.87344 19.6109 6.18266 20.3095 6.57609C20.5167 6.69281 20.772 6.6832 20.9698 6.55133L23.8046 4.66148C24.0845 4.47492 24.4602 4.51219 24.6982 4.75L25.987 6.03875C26.2248 6.27664 26.262 6.65242 26.0755 6.93234L24.1856 9.76719C24.0537 9.96508 24.0441 10.2202 24.1609 10.4275C24.5543 11.126 24.8635 11.8723 25.0799 12.6455C25.144 12.8745 25.3311 13.048 25.5643 13.0946L28.9048 13.7627C29.2346 13.8287 29.4741 14.1207 29.4741 14.4571V16.2797C29.4741 16.6161 29.2347 16.908 28.9048 16.9741L25.5643 17.6422C25.3311 17.6888 25.144 17.8624 25.0799 18.0914C24.923 18.6523 24.7159 19.2026 24.4643 19.7269C24.3134 20.0413 24.446 20.4186 24.7605 20.5695C25.0749 20.7205 25.4523 20.5877 25.603 20.2733C25.8301 19.8001 26.025 19.3081 26.1845 18.8063L29.1525 18.2127C30.0704 18.029 30.7368 17.216 30.7368 16.2796V14.457C30.7368 13.5206 30.0704 12.7077 29.1521 12.524L26.1841 11.9304C25.9895 11.3176 25.7427 10.7218 25.4471 10.1516L27.1262 7.63289C27.6455 6.85375 27.542 5.80766 26.8798 5.14547L25.5911 3.85672C24.9288 3.19453 23.8827 3.09109 23.1037 3.61039L20.585 5.28945C20.0148 4.99391 19.419 4.74711 18.8062 4.55242L18.2126 1.58445C18.0291 0.666406 17.2161 0 16.2797 0H14.4571C13.5207 0 12.7078 0.666406 12.5241 1.58469L11.9305 4.55266C11.3177 4.74734 10.7219 4.99406 10.1516 5.28969L7.63313 3.61063C6.85406 3.09125 5.80789 3.19469 5.1457 3.85695L3.85695 5.1457C3.19484 5.80789 3.09125 6.85391 3.61063 7.63313L5.28969 10.1518C4.99414 10.722 4.74734 11.3177 4.55266 11.9306L1.58461 12.5242C0.666406 12.7078 0 13.5208 0 14.4572V16.2798C0 17.2162 0.666406 18.0291 1.58469 18.2128L4.55266 18.8064C4.74727 19.4191 4.99406 20.0149 5.28969 20.5852L3.61063 23.1039C3.09125 23.883 3.19477 24.9291 3.85695 25.5913L5.1457 26.8801C5.80789 27.5423 6.85398 27.6457 7.63313 27.1264L10.1518 25.4473C10.722 25.7429 11.3177 25.9897 11.9306 26.1844L12.5242 29.1525C12.7078 30.0705 13.5208 30.737 14.4572 30.737H16.2798C17.2162 30.737 18.0291 30.0705 18.2128 29.1523L18.8064 26.1843C19.293 26.0297 19.7707 25.8416 20.2305 25.6234C20.5455 25.4737 20.6798 25.097 20.5301 24.7818Z" fill="white"/>
<path d="M20.839 18.8778C20.9312 18.9251 21.0296 18.9476 21.1266 18.9476C21.356 18.9476 21.5773 18.8222 21.6891 18.604C22.1985 17.6107 22.4678 16.4919 22.4678 15.3685C22.4678 11.4539 19.283 8.26904 15.3683 8.26904C13.506 8.26904 11.7462 8.98482 10.4129 10.2847C10.1631 10.5282 10.158 10.9281 10.4015 11.1778C10.6449 11.4275 11.0447 11.4327 11.2945 11.1892C12.3905 10.1208 13.8372 9.53225 15.3682 9.53225C18.5863 9.53225 21.2045 12.1504 21.2045 15.3686C21.2045 16.3056 20.9894 17.2003 20.5651 18.0278C20.406 18.3379 20.5286 18.7186 20.839 18.8778Z" fill="white"/>
<path d="M9.45639 12.666C9.12646 12.5525 8.76725 12.7279 8.65373 13.0577C8.3985 13.7998 8.26904 14.5773 8.26904 15.3684C8.26904 19.2831 11.4539 22.4679 15.3685 22.4679C16.874 22.4679 18.3125 22.0026 19.5284 21.122C19.8109 20.9174 19.8741 20.5225 19.6696 20.24C19.4651 19.9575 19.0701 19.8943 18.7876 20.0988C17.7885 20.8222 16.6062 21.2046 15.3684 21.2046C12.1502 21.2046 9.53209 18.5864 9.53209 15.3683C9.53209 14.7172 9.63834 14.0779 9.84803 13.4684C9.96146 13.1387 9.78615 12.7794 9.45639 12.666Z" fill="white"/>
<path d="M38.7846 27.6028L36.9583 27.2376C36.847 26.9066 36.713 26.5834 36.5577 26.271L37.591 24.7211C37.9893 24.1235 37.91 23.3211 37.4021 22.8133L36.5552 21.9664C36.0473 21.4586 35.245 21.3792 34.6474 21.7775L33.0976 22.8108C32.7851 22.6555 32.4619 22.5215 32.1309 22.4103L31.7657 20.584C31.6248 19.8797 31.0013 19.3685 30.2831 19.3685H29.0854C28.3672 19.3685 27.7436 19.8797 27.6028 20.584L27.2376 22.4103C26.9065 22.5216 26.5833 22.6556 26.2709 22.8108L24.7211 21.7775C24.1234 21.3792 23.3211 21.4585 22.8133 21.9664L21.9664 22.8133C21.4585 23.3212 21.3791 24.1235 21.7775 24.7211L22.8108 26.271C22.5972 26.7005 22.4241 27.1503 22.2947 27.6129C22.2008 27.9488 22.3969 28.2973 22.7328 28.3913C23.0687 28.4853 23.4172 28.2892 23.5112 27.9533C23.6487 27.4617 23.8453 26.9875 24.0953 26.5437C24.212 26.3364 24.2024 26.0812 24.0705 25.8834L22.8286 24.0205C22.763 23.9221 22.7761 23.7901 22.8597 23.7065L23.7065 22.8596C23.7901 22.7761 23.9222 22.7631 24.0205 22.8285L25.8834 24.0705C26.0812 24.2024 26.3365 24.212 26.5437 24.0952C26.9876 23.8452 27.4618 23.6487 27.9533 23.5112C28.1823 23.4471 28.3558 23.26 28.4024 23.0268L28.8414 20.8317C28.8645 20.7159 28.9672 20.6317 29.0854 20.6317H30.2831C30.4012 20.6317 30.5039 20.7159 30.5271 20.8317L30.9661 23.027C31.0127 23.2602 31.1863 23.4473 31.4151 23.5113C31.9067 23.6488 32.3809 23.8454 32.8247 24.0954C33.0319 24.2121 33.2872 24.2025 33.485 24.0706L35.3479 22.8287C35.4463 22.7631 35.5783 22.7761 35.6619 22.8598L36.5088 23.7067C36.5923 23.7902 36.6054 23.9223 36.5399 24.0206L35.2979 25.8835C35.166 26.0814 35.1564 26.3366 35.2732 26.5438C35.5232 26.9877 35.7197 27.4619 35.8572 27.9535C35.9213 28.1824 36.1084 28.356 36.3416 28.4025L38.5367 28.8415C38.6525 28.8646 38.7367 28.9673 38.7367 29.0855V30.2832C38.7367 30.4013 38.6525 30.504 38.5367 30.5272L36.3415 30.9662C36.1083 31.0128 35.9211 31.1864 35.8571 31.4152C35.7196 31.9068 35.523 32.381 35.273 32.8249C35.1563 33.0321 35.1659 33.2874 35.2978 33.4852L36.5397 35.3481C36.6053 35.4464 36.5922 35.5785 36.5086 35.662L35.6618 36.5089C35.5783 36.5925 35.4462 36.6055 35.3478 36.54L33.4849 35.2981C33.2871 35.1662 33.0318 35.1566 32.8246 35.2733C32.3807 35.5233 31.9065 35.7199 31.415 35.8574C31.186 35.9214 31.0125 36.1085 30.9659 36.3417L30.5269 38.5368C30.5038 38.6527 30.4011 38.7368 30.2829 38.7368H29.0852C28.9671 38.7368 28.8644 38.6527 28.8412 38.5368L28.4022 36.3416C28.3556 36.1084 28.182 35.9213 27.9532 35.8572C27.4616 35.7197 26.9874 35.5231 26.5436 35.2731C26.3363 35.1564 26.081 35.166 25.8833 35.2979L24.0204 36.5399C23.922 36.6054 23.79 36.5924 23.7064 36.5088L22.8595 35.6619C22.776 35.5783 22.7629 35.4463 22.8284 35.3479L24.0704 33.485C24.2023 33.2871 24.2119 33.032 24.0951 32.8247C23.8451 32.3808 23.6486 31.9067 23.5111 31.4151C23.447 31.1861 23.2599 31.0126 23.0267 30.966L20.8316 30.527C20.7158 30.5039 20.6316 30.4013 20.6316 30.2831V29.0853C20.6316 28.9672 20.7158 28.8645 20.8316 28.8413L20.966 28.8145C21.308 28.746 21.5299 28.4133 21.4614 28.0713C21.3929 27.7292 21.0606 27.5077 20.7181 27.5759L20.5837 27.6027C19.8796 27.7437 19.3684 28.3672 19.3684 29.0854V30.2831C19.3684 31.0013 19.8796 31.6249 20.5839 31.7657L22.4102 32.131C22.5215 32.462 22.6554 32.7852 22.8107 33.0976L21.7774 34.6474C21.379 35.2451 21.4584 36.0474 21.9663 36.5553L22.8132 37.4021C23.3211 37.91 24.1234 37.9894 24.721 37.591L26.2708 36.5577C26.5833 36.7131 26.9065 36.847 27.2375 36.9582L27.6027 38.7845C27.7437 39.4888 28.3672 40 29.0854 40H30.2832C31.0013 40 31.6249 39.4888 31.7658 38.7845L32.131 36.9582C32.462 36.847 32.7852 36.713 33.0976 36.5577L34.6475 37.591C35.2451 37.9893 36.0475 37.9099 36.5553 37.402L37.4022 36.5552C37.91 36.0473 37.9894 35.2449 37.5911 34.6474L36.5578 33.0975C36.7131 32.7851 36.8471 32.4619 36.9583 32.1309L38.7846 31.7656C39.4888 31.6248 40 31.0013 40 30.2831V29.0853C40 28.3672 39.4889 27.7437 38.7846 27.6028Z" fill="white"/>
<path d="M29.6842 27.4105C30.9379 27.4105 31.9578 28.4305 31.9578 29.6842C31.9578 30.033 32.2407 30.3158 32.5894 30.3158C32.9382 30.3158 33.221 30.033 33.221 29.6842C33.221 27.734 31.6343 26.1473 29.6841 26.1473C27.7339 26.1473 26.1472 27.734 26.1472 29.6842C26.1472 31.6344 27.7339 33.2211 29.6841 33.2211C30.474 33.2211 31.2212 32.9663 31.845 32.4844C32.121 32.2712 32.1718 31.8745 31.9586 31.5984C31.7453 31.3224 31.3486 31.2715 31.0726 31.4848C30.672 31.7942 30.1918 31.9579 29.6841 31.9579C28.4303 31.9579 27.4104 30.938 27.4104 29.6842C27.4105 28.4304 28.4304 27.4105 29.6842 27.4105Z" fill="white"/>
<path d="M19.2165 15.3684C19.2165 13.2467 17.4903 11.5205 15.3686 11.5205C13.2469 11.5205 11.5208 13.2468 11.5208 15.3684C11.5208 17.4901 13.2469 19.2163 15.3686 19.2163C17.4904 19.2163 19.2165 17.49 19.2165 15.3684ZM12.7839 15.3684C12.7839 13.9432 13.9435 12.7836 15.3686 12.7836C16.7938 12.7836 17.9534 13.9432 17.9534 15.3684C17.9534 16.7936 16.7939 17.9532 15.3686 17.9532C13.9433 17.9532 12.7839 16.7936 12.7839 15.3684Z" fill="white"/>
</svg>
