<svg width="40" height="40" viewBox="0 0 40 40" fill="none" xmlns="http://www.w3.org/2000/svg">
<path d="M6.66667 16.9766H15.3333C15.702 16.9766 16 16.678 16 16.31C16 15.942 15.702 15.6433 15.3333 15.6433H6.66667C6.298 15.6433 6 15.942 6 16.31C6 16.678 6.298 16.9766 6.66667 16.9766Z" fill="white"/>
<path d="M24 19.6433H6.66667C6.298 19.6433 6 19.942 6 20.31C6 20.678 6.298 20.9766 6.66667 20.9766H24C24.3687 20.9766 24.6667 20.678 24.6667 20.31C24.6667 19.942 24.3687 19.6433 24 19.6433Z" fill="white"/>
<path d="M24 23.6433H6.66667C6.298 23.6433 6 23.942 6 24.31C6 24.678 6.298 24.9766 6.66667 24.9766H24C24.3687 24.9766 24.6667 24.678 24.6667 24.31C24.6667 23.942 24.3687 23.6433 24 23.6433Z" fill="white"/>
<path d="M36.048 1.68998L13.2867 1.64331C11.1067 1.64331 9.33333 3.41664 9.33333 5.59664V9.01264L3.95333 9.02398C1.77333 9.02398 0 10.7973 0 12.9773V27.0713C0 29.2513 1.77333 31.024 3.95333 31.024H8V37.6906C8 37.966 8.16933 38.2133 8.42667 38.3126C8.50467 38.3426 8.586 38.3573 8.66667 38.3573C8.85067 38.3573 9.03133 38.2806 9.16 38.1393L15.6293 31.0226L26.7133 30.9773C28.8933 30.9773 30.6667 29.204 30.6667 27.0246V26.9493L34.1733 30.8066C34.302 30.948 34.4827 31.0246 34.6667 31.0246C34.7473 31.0246 34.8287 31.01 34.9067 30.98C35.164 30.8806 35.3333 30.6333 35.3333 30.358V23.6913H36.0467C38.2267 23.6913 40 21.918 40 19.7386V5.64331C40 3.46398 38.2273 1.69064 36.048 1.68998ZM29.3333 27.024C29.3333 28.4686 28.158 29.6433 26.7107 29.6433L15.3307 29.69C15.144 29.6906 14.9653 29.77 14.84 29.908L9.33333 35.966V30.3566C9.33333 29.9886 9.03533 29.69 8.66667 29.69H3.95333C2.50867 29.69 1.33333 28.5146 1.33333 27.0706V12.9766C1.33333 11.532 2.50867 10.3566 3.95467 10.3566L10 10.344C10.0007 10.344 10.0007 10.344 10.0013 10.344L26.7133 10.3093C28.158 10.3093 29.3333 11.4846 29.3333 12.9293V25.2233V27.024ZM38.6667 19.7373C38.6667 21.182 37.4913 22.3566 36.0467 22.3566H34.6667C34.298 22.3566 34 22.6553 34 23.0233V28.6326L30.6667 24.966V12.93C30.6667 10.75 28.8933 8.97664 26.712 8.97664L10.6667 9.00931V5.59598C10.6667 4.15131 11.842 2.97598 13.2853 2.97598L36.046 3.02264C36.0467 3.02264 36.0467 3.02264 36.0473 3.02264C37.492 3.02264 38.6673 4.19798 38.6673 5.64264V19.7373H38.6667Z" fill="white"/>
</svg>
