<svg width="40" height="40" viewBox="0 0 40 40" fill="none" xmlns="http://www.w3.org/2000/svg">
<path d="M36.2161 29.1893H3.7837C3.64034 29.1893 3.50286 29.1323 3.40148 29.031C3.30011 28.9296 3.24316 28.7921 3.24316 28.6487V9.18927C3.24402 8.47274 3.52905 7.78579 4.03572 7.27912C4.54238 6.77245 5.22933 6.48743 5.94587 6.48657H34.054C34.7705 6.48743 35.4575 6.77245 35.9641 7.27912C36.4708 7.78579 36.7558 8.47274 36.7567 9.18927V28.6487C36.7567 28.7921 36.6997 28.9296 36.5984 29.031C36.497 29.1323 36.3595 29.1893 36.2161 29.1893ZM4.32425 28.1082H35.6756V9.18927C35.6756 8.75919 35.5047 8.34673 35.2006 8.04262C34.8965 7.7385 34.4841 7.56765 34.054 7.56765H5.94587C5.51579 7.56765 5.10332 7.7385 4.79921 8.04262C4.49509 8.34673 4.32425 8.75919 4.32425 9.18927V28.1082Z" fill="white"/>
<path d="M34.0542 27.0272H5.94606C5.8027 27.0272 5.66521 26.9702 5.56384 26.8689C5.46247 26.7675 5.40552 26.63 5.40552 26.4866V9.18934C5.40552 9.04598 5.46247 8.90849 5.56384 8.80712C5.66521 8.70575 5.8027 8.6488 5.94606 8.6488H34.0542C34.1975 8.6488 34.335 8.70575 34.4364 8.80712C34.5378 8.90849 34.5947 9.04598 34.5947 9.18934V26.4866C34.5947 26.63 34.5378 26.7675 34.4364 26.8689C34.335 26.9702 34.1975 27.0272 34.0542 27.0272ZM6.4866 25.9461H33.5136V9.72988H6.4866V25.9461Z" fill="white"/>
<path d="M35.6757 33.5137H4.3243C3.46444 33.5127 2.64009 33.1707 2.03208 32.5626C1.42408 31.9546 1.08206 31.1303 1.08105 30.2704V28.6488C1.08105 28.5055 1.138 28.368 1.23938 28.2666C1.34075 28.1652 1.47824 28.1083 1.6216 28.1083H38.3784C38.5217 28.1083 38.6592 28.1652 38.7606 28.2666C38.8619 28.368 38.9189 28.5055 38.9189 28.6488V30.2704C38.9179 31.1303 38.5759 31.9546 37.9679 32.5626C37.3599 33.1707 36.5355 33.5127 35.6757 33.5137ZM2.16214 29.1894V30.2704C2.16214 30.8439 2.38993 31.3938 2.79542 31.7993C3.2009 32.2048 3.75086 32.4326 4.3243 32.4326H35.6757C36.2491 32.4326 36.7991 32.2048 37.2045 31.7993C37.61 31.3938 37.8378 30.8439 37.8378 30.2704V29.1894H2.16214Z" fill="white"/>
<path d="M19.508 23.7838C19.4043 23.7838 19.3027 23.7539 19.2155 23.6978C19.1283 23.6416 19.0591 23.5615 19.0161 23.4671L14.1021 12.6563C14.0566 12.5561 14.0428 12.4445 14.0624 12.3362C14.082 12.228 14.1342 12.1283 14.212 12.0505C14.2898 11.9727 14.3895 11.9205 14.4977 11.9009C14.6059 11.8813 14.7176 11.8951 14.8178 11.9406L25.6286 16.8546C25.7327 16.9019 25.8191 16.981 25.8755 17.0805C25.9318 17.18 25.9551 17.2948 25.9421 17.4084C25.929 17.522 25.8803 17.6286 25.8029 17.7127C25.7255 17.7969 25.6234 17.8543 25.5113 17.8768L20.9507 18.7892L20.0383 23.3514C20.0134 23.4736 19.9469 23.5834 19.8503 23.6622C19.7537 23.741 19.6327 23.784 19.508 23.7838ZM15.6832 13.5211L19.3048 21.4941L19.9588 18.2233C19.9798 18.1187 20.0312 18.0227 20.1066 17.9473C20.182 17.8719 20.2781 17.8205 20.3826 17.7995L23.6534 17.1455L15.6832 13.5211Z" fill="white"/>
<path d="M20.105 18.7118L20.8693 17.9475L25.7824 22.8605L25.0181 23.6249L20.105 18.7118Z" fill="white"/>
</svg>
