<svg width="40" height="40" viewBox="0 0 40 40" fill="none" xmlns="http://www.w3.org/2000/svg">
<path d="M33.5562 5.85781C29.7787 2.08039 24.7563 0 19.4141 0C19.0905 0 18.8281 0.262266 18.8281 0.585938V1.1818C14.0186 1.32789 9.51828 3.26875 6.10055 6.68641C2.54437 10.2427 0.585938 14.9709 0.585938 20C0.585938 24.8333 2.3957 29.388 5.69328 32.8921L5.27195 33.3134C5.16203 33.4234 5.10031 33.5723 5.10031 33.7278C5.10031 33.8833 5.16203 34.0322 5.27195 34.1422C9.04945 37.9196 14.0719 40 19.4141 40C24.7563 40 29.7787 37.9196 33.5562 34.1422C37.3338 30.3648 39.4141 25.3422 39.4141 20C39.4141 14.6578 37.3337 9.63531 33.5562 5.85781ZM1.75781 20C1.75781 15.2838 3.59437 10.85 6.92922 7.51516C10.1255 4.31883 14.3317 2.50008 18.8281 2.35437V3.52695C14.6448 3.67219 10.7328 5.36883 7.75789 8.34375C6.50602 9.59562 5.4718 11.0219 4.68391 12.5827C4.53805 12.8716 4.65406 13.2241 4.94289 13.3698C5.02758 13.4126 5.11766 13.4329 5.20648 13.4329C5.42062 13.4329 5.62695 13.315 5.73 13.1109C6.46172 11.6613 7.42273 10.3362 8.58648 9.1725C11.3402 6.41883 14.9579 4.8443 18.8281 4.69961V5.27344C18.8281 5.59711 19.0905 5.85938 19.4141 5.85938C27.2113 5.85938 33.5547 12.2028 33.5547 20C33.5547 27.7972 27.2113 34.1406 19.4141 34.1406C15.637 34.1406 12.0859 32.6698 9.41516 29.9989C9.18633 29.7702 8.81531 29.7702 8.58656 29.9989L8.18078 30.4047C5.54633 27.5657 4.10156 23.8941 4.10156 20C4.10156 18.3542 4.35891 16.7377 4.86656 15.1953C4.96773 14.8879 4.80055 14.5567 4.4932 14.4555C4.18586 14.3545 3.85461 14.5215 3.75344 14.8289C3.20687 16.4897 2.92969 18.2295 2.92969 20C2.92969 24.2071 4.49617 28.173 7.35156 31.2338L6.52242 32.063C3.44602 28.7805 1.75781 24.5202 1.75781 20ZM19.4141 38.8281C14.5807 38.8281 10.0253 37.0191 6.52117 33.7216L8.58641 31.6563C8.58656 31.6562 9.00852 31.2342 9.00852 31.2342C11.8475 33.8686 15.5199 35.3125 19.4141 35.3125C27.8574 35.3125 34.7266 28.4434 34.7266 20C34.7266 11.753 28.1727 5.00781 20 4.69859V1.18086C30.1122 1.49117 38.2422 9.81391 38.2422 20C38.2422 30.3819 29.7959 38.8281 19.4141 38.8281Z" fill="white"/>
<path d="M19.4141 32.9688C26.5651 32.9688 32.3828 27.1509 32.3828 20C32.3828 12.8491 26.5651 7.03125 19.4141 7.03125C19.0905 7.03125 18.8281 7.29352 18.8281 7.61719V8.21773C12.7886 8.51461 7.92867 13.3745 7.6318 19.4141H7.03125C6.70766 19.4141 6.44531 19.6763 6.44531 20C6.44531 27.1509 12.263 32.9688 19.4141 32.9688ZM19.4141 12.8906C23.3342 12.8906 26.5234 16.0798 26.5234 20C26.5234 23.9202 23.3342 27.1094 19.4141 27.1094C15.4939 27.1094 12.3047 23.9202 12.3047 20C12.3047 19.6763 12.0423 19.4141 11.7188 19.4141H11.1538C11.4419 15.3138 14.7279 12.0278 18.8281 11.7398V12.3047C18.8281 12.6284 19.0905 12.8906 19.4141 12.8906ZM18.8281 9.39141V10.5655C14.0815 10.8573 10.2714 14.6673 9.97961 19.4141H8.80547C9.10008 14.0209 13.435 9.68602 18.8281 9.39141ZM11.1534 20.5859C11.455 24.8798 15.0448 28.2812 19.4141 28.2812C23.9804 28.2812 27.6953 24.5662 27.6953 20C27.6953 15.6307 24.2938 12.0409 20 11.7393V8.2175C26.2337 8.52406 31.2109 13.6917 31.2109 20C31.2109 26.5048 25.9189 31.7969 19.4141 31.7969C13.1058 31.7969 7.93805 26.8195 7.63156 20.5859H11.1534Z" fill="white"/>
</svg>
