<svg width="83" height="25" viewBox="0 0 83 25" fill="none" xmlns="http://www.w3.org/2000/svg">
<path d="M62.9105 12.1745L70.6248 0.994446H68.3994L63.8517 7.66204C62.8049 9.1662 62.2156 10.0458 61.6966 10.8639H61.635C60.9137 9.75556 60.4563 8.99908 59.5767 7.7588L55.029 0.994446H52.7419L60.3947 12.1745L52.1526 23.8736H54.4396L58.3628 18.2528C59.6382 16.4232 60.7818 14.787 61.5998 13.4764H61.6614C62.6378 14.8838 63.6845 16.388 64.9336 18.2176L68.8919 23.8736H71.179L62.9105 12.1745ZM43.3915 14.2944H36.3632V2.82407H43.3915C47.3762 2.82407 49.241 5.33981 49.241 8.57685C49.241 11.7787 47.3762 14.2944 43.3915 14.2944ZM43.4531 0.994446H34.4369V23.8736H36.3632V16.1241H43.4531C48.5813 16.1241 51.2026 12.7199 51.2026 8.54167C51.2026 4.38982 48.5901 0.994446 43.4531 0.994446ZM21.1632 9.52685C19.4304 9.52685 17.6623 9.85232 15.8063 10.7407H15.7447C15.8063 10.1162 15.8767 9.40371 15.9119 8.81435L16.2725 2.86806H28.0068V1.00324H14.4605L13.8095 12.2801L15.4456 12.6759C17.372 11.6644 19.2017 11.3653 20.9697 11.3653C25.1831 11.3653 27.347 13.362 27.347 16.6958C27.347 20.2583 24.8665 22.3519 20.8114 22.3519C17.8734 22.3519 15.4808 21.4019 13.5544 20.1264L12.6396 21.6921C14.6012 23.0995 17.4424 24.1727 20.8818 24.1727C26.01 24.1727 29.2822 21.3315 29.2822 16.687C29.2646 12.3065 26.3619 9.52685 21.1632 9.52685ZM7.36185 0.897686L0.791016 3.14954V5.07593L5.79611 3.37824V23.8736H7.7225V0.897686H7.36185Z" fill="#2F407C"/>
<path d="M79.7989 23.988C81.2327 23.988 82.1651 23.038 82.1651 21.5426V18.244H81.2327V21.5426C81.2327 22.5278 80.6698 23.1347 79.7989 23.1347C78.9369 23.1347 78.3651 22.5278 78.3651 21.5338V18.244H77.4327V21.5426C77.4327 23.0468 78.3739 23.988 79.7989 23.988ZM75.3128 20.1176C75.3128 20.7333 74.9082 21.1028 74.2309 21.1028H72.929V19.0972H74.2221C74.9082 19.0972 75.3128 19.4843 75.3128 20.1176ZM75.3392 23.8736H76.5179L74.7938 21.8944C75.6823 21.7009 76.2452 21.0148 76.2452 20.0824C76.2452 18.9741 75.4448 18.244 74.2573 18.244H71.9614V23.8736H72.9114V21.9472H73.6943L75.3392 23.8736Z" fill="#2F407C"/>
<path d="M74.31 0.994446H71.979V3.32546H74.31V0.994446Z" fill="#C11B86"/>
<path d="M78.2422 0.994446H75.9111V3.32546H78.2422V0.994446Z" fill="#C11B86"/>
<path d="M82.165 0.994446H79.834V3.32546H82.165V0.994446Z" fill="#C11B86"/>
<path d="M74.31 4.425H71.979V6.75602H74.31V4.425Z" fill="#C11B86"/>
<path d="M78.2422 4.425H75.9111V6.75602H78.2422V4.425Z" fill="#C11B86"/>
<path d="M82.165 4.425H79.834V6.75602H82.165V4.425Z" fill="#C11B86"/>
<path d="M74.31 7.86435H71.979V10.1954H74.31V7.86435Z" fill="#C11B86"/>
<path d="M78.2422 7.86435H75.9111V10.1954H78.2422V7.86435Z" fill="#C11B86"/>
<path d="M82.165 7.86435H79.834V10.1954H82.165V7.86435Z" fill="#C11B86"/>
<path d="M74.31 11.2949H71.979V13.6259H74.31V11.2949Z" fill="#C11B86"/>
<path d="M78.2422 11.2949H75.9111V13.6259H78.2422V11.2949Z" fill="#C11B86"/>
<path d="M82.165 11.2949H79.834V13.6259H82.165V11.2949Z" fill="#C11B86"/>
<path d="M74.31 14.7343H71.979V17.0653H74.31V14.7343Z" fill="#C11B86"/>
<path d="M78.2422 14.7343H75.9111V17.0653H78.2422V14.7343Z" fill="#C11B86"/>
<path d="M82.165 14.7343H79.834V17.0653H82.165V14.7343Z" fill="#C11B86"/>
</svg>
