<svg xmlns="http://www.w3.org/2000/svg" style="display:none"><defs><clipPath id="a"><path fill="#fff" d="M0 0h19v19H0z"/></clipPath><clipPath id="a"><path fill="#fff" d="M0 0h25v25H0z"/></clipPath><clipPath id="a"><path fill="#fff" d="M0 0h25v25H0z"/></clipPath></defs><symbol id="check-mark" viewBox="0 0 19 19"><g clip-path="url(#a)"><path d="M18.922 4.61L7.143 16.39a.265.265 0 0 1-.375 0L.077 9.702a.265.265 0 0 1 0-.375l1.626-1.625a.266.266 0 0 1 .375 0l4.877 4.876 9.967-9.968a.266.266 0 0 1 .375 0l1.625 1.626a.265.265 0 0 1 0 .375z" fill="#0077E6"/></g></symbol><symbol id="garant-icon" viewBox="0 0 34 34"><path d="M26.367 13.954h-.999V8.368C25.368 3.754 21.614 0 17 0c-4.614 0-8.368 3.754-8.368 8.368v5.586h-1a3.973 3.973 0 0 0-3.968 3.969V30.03A3.973 3.973 0 0 0 7.633 34h18.734a3.973 3.973 0 0 0 3.97-3.969V17.923a3.977 3.977 0 0 0-3.97-3.97zM11.012 8.368A5.994 5.994 0 0 1 17 2.38a5.994 5.994 0 0 1 5.988 5.988v5.586H11.012V8.368zm16.937 21.656c0 .874-.714 1.59-1.589 1.59H7.633a1.593 1.593 0 0 1-1.59-1.59V17.923c0-.874.715-1.59 1.59-1.59h18.734c.874 0 1.59.716 1.59 1.59v12.101h-.008z" fill="#28303B"/><path d="M17 21.316c-.66 0-1.187.534-1.187 1.193v3.074c0 .66.534 1.187 1.187 1.187.659 0 1.193-.535 1.193-1.187V22.51A1.198 1.198 0 0 0 17 21.316z" fill="#28303B"/></symbol><symbol id="tag-icon-01" viewBox="0 0 25 25"><path d="M1.867 0a.376.376 0 0 0-.38.416l1.937 21.727a.65.65 0 0 0 .44.528l8.22 2.283c.22.061.583.061.804 0l8.245-2.286a.65.65 0 0 0 .44-.528L23.513.416a.376.376 0 0 0-.38-.416H1.867zm17.521 4.983l-.07.787-.051.57-.066.727c-.015.172-.03.312-.032.312H9.003a.376.376 0 0 0-.38.416l.179 2.001c.02.229.225.416.455.416h9.291c.205 0 .358.167.34.371-.02.204-.051.559-.072.788l-.575 6.452-.058.65c-.011.128-.202.284-.423.345l-4.858 1.347-.408.113c-.004 0-.188-.05-.41-.11l-4.861-1.35a.65.65 0 0 1-.44-.528l-.313-3.513a.376.376 0 0 1 .38-.416H8.793c.23 0 .434.188.455.416l.122 1.376c.02.228.219.465.44.525l2.275.614.405.109.405-.11 2.279-.615a.645.645 0 0 0 .44-.525l.247-2.755a.376.376 0 0 0-.38-.416H6.727a.467.467 0 0 1-.455-.416L5.666 5.77l-.07-.787c-.019-.204.154-.371.384-.371h13.023c.23 0 .403.167.385.371z" fill="#0760A0"/></symbol><symbol id="tag-icon-02" viewBox="0 0 25 25"><g clip-path="url(#a)"><path d="M22.678 0H2.321a.814.814 0 0 0-.81.9l1.86 20.837c.042.487.464.997.936 1.128l7.33 2.036c.472.131 1.244.132 1.716.002l7.34-2.033c.472-.131.893-.637.936-1.125L23.49.9a.813.813 0 0 0-.81-.9zm-3.53 7.521a.007.007 0 0 1-.006.007.007.007 0 0 1-.008-.005l-5.743 2.354a.185.185 0 0 0 .07.356h4.467a.838.838 0 0 1 .833.926l-.698 6.548a.837.837 0 0 1-.554.701l-4.742 1.668a.837.837 0 0 1-.552.002l-4.72-1.635a.838.838 0 0 1-.558-.702l-.316-2.966a.552.552 0 0 1 .548-.61h1.314c.282 0 .519.213.548.493l.195 1.823 3.267 1.136 3.283-1.146.401-3.78H6.896a.552.552 0 0 1-.548-.492l-.177-1.602a.552.552 0 0 1 .338-.57l5.94-2.45a.152.152 0 0 0-.058-.293H6.137a.368.368 0 0 1-.366-.33l-.18-1.721a.368.368 0 0 1 .365-.407h13.086a.368.368 0 0 1 .365.41l-.26 2.285z" fill="#0760A0"/></g></symbol><symbol id="tag-icon-03" viewBox="0 0 25 25"><path d="M20.73 23.258H4.27V25h16.458v-1.742zM20.729 10.762h-4.225V4.004A4.009 4.009 0 0 0 12.5 0a4.009 4.009 0 0 0-4.004 4.004v6.758H4.27v11.031h16.458V10.762zM9.962 4.004c0-1.4 1.138-2.538 2.538-2.538s2.538 1.139 2.538 2.538v6.758H9.962V4.004zm-.816 14.719c-.543 0-1.091-.135-1.416-.334l.353-.799a2.23 2.23 0 0 0 1.072.297c.311 0 .423-.065.423-.176 0-.409-1.797-.08-1.797-1.29 0-.604.506-1.096 1.513-1.096.437 0 .887.092 1.226.283l-.33.794c-.32-.163-.622-.242-.905-.242-.32 0-.422.093-.422.204 0 .39 1.796.065 1.796 1.263 0 .595-.506 1.096-1.513 1.096zm3.282 0c-.543 0-1.09-.135-1.416-.334l.353-.799a2.23 2.23 0 0 0 1.072.297c.311 0 .423-.065.423-.176 0-.409-1.797-.08-1.797-1.29 0-.604.506-1.096 1.514-1.096.436 0 .886.092 1.225.283l-.33.794c-.32-.163-.621-.242-.905-.242-.32 0-.422.093-.422.204 0 .39 1.797.065 1.797 1.263 0 .595-.507 1.096-1.514 1.096zm2.07-.074v-3.25h1.096v2.4h1.467v.85H14.5z" fill="#0760A0"/></symbol><symbol id="tag-icon-04" viewBox="0 0 25 25"><g clip-path="url(#a)"><path d="M24.56 15.527L11.256 9.746a9.942 9.942 0 0 0 2.349-5.351h.8a.733.733 0 0 0 .733-.733V.732A.732.732 0 0 0 14.405 0h-2.93a.732.732 0 0 0-.732.732v2.93c0 .405.328.733.733.733h.652A8.5 8.5 0 0 1 9.57 9.397a8.5 8.5 0 0 1-5.175 2.339v-.452a.732.732 0 0 0-.732-.733H.733a.732.732 0 0 0-.732.733v2.93c0 .404.328.732.732.732h2.93a.732.732 0 0 0 .733-.733v-1.007a9.944 9.944 0 0 0 5.324-2.013l5.808 13.367a.733.733 0 0 0 1.372-.078l1.33-4.347a2.868 2.868 0 0 1 1.905-1.906l4.348-1.33a.732.732 0 0 0 .077-1.372zM12.208 1.465h1.465V2.93h-1.465V1.465zM2.931 13.48H1.466v-1.465H2.93v1.465zm16.776 3.347a4.33 4.33 0 0 0-2.878 2.878l-.749 2.448-4.668-10.743 10.743 4.668-2.448.749z" fill="#0760A0"/></g></symbol><symbol id="tag-icon-05" viewBox="0 0 25 25"><path d="M22.803 5.908h-.733v-.732a2.2 2.2 0 0 0-2.197-2.197H3.663a2.2 2.2 0 0 0-2.198 2.197v12.451H.732a.732.732 0 0 0-.732.732v1.465a2.2 2.2 0 0 0 2.197 2.197h20.606A2.2 2.2 0 0 0 25 19.825V8.105a2.2 2.2 0 0 0-2.197-2.197zM2.93 5.176c0-.404.328-.733.732-.733h16.211c.404 0 .732.329.732.733v.732h-3.662a2.2 2.2 0 0 0-2.197 2.197v9.522H2.93V5.176zM1.465 19.824v-.732h13.281v.732c0 .257.045.503.126.733H2.197a.733.733 0 0 1-.732-.733zm22.07 0a.733.733 0 0 1-.732.733h-5.86a.733.733 0 0 1-.732-.733V8.105c0-.403.329-.732.732-.732h5.86c.404 0 .732.329.732.732v11.72z" fill="#0760A0"/><path d="M20.605 17.627h-1.464a.732.732 0 1 0 0 1.465h1.465a.732.732 0 1 0 0-1.465zM19.873 10.303a.732.732 0 1 0 0-1.465.732.732 0 0 0 0 1.465z" fill="#0760A0"/></symbol><symbol id="temp-icon-left-arrow" viewBox="0 0 31.494 31.494"><path d="M10.273 5.01a1.117 1.117 0 0 1 1.587 1.57l-8.047 8.047h26.554c.62 0 1.127.492 1.127 1.11 0 .62-.508 1.128-1.127 1.128H3.813l8.047 8.032c.43.444.43 1.16 0 1.587a1.112 1.112 0 0 1-1.587 0L.32 16.532a1.12 1.12 0 0 1 0-1.57l9.953-9.953z" fill="#1E201D"/></symbol><symbol id="temp-icon-right-arrow" viewBox="0 0 31.49 31.49"><path d="M21.205 5.007a1.117 1.117 0 0 0-1.587 1.57l8.047 8.048H1.11c-.618 0-1.11.493-1.11 1.112 0 .62.492 1.127 1.11 1.127h26.555l-8.047 8.032c-.43.444-.43 1.16 0 1.587.444.444 1.16.444 1.587 0l9.952-9.952a1.092 1.092 0 0 0 0-1.57l-9.952-9.95z" fill="#1E201D"/></symbol><symbol id="to-icon-01" viewBox="0 0 40 40"><path d="M36.216 29.19H3.784a.54.54 0 0 1-.54-.541V9.189a2.706 2.706 0 0 1 2.702-2.702h28.108a2.706 2.706 0 0 1 2.703 2.702v19.46a.541.541 0 0 1-.54.54zM4.324 28.107h31.352V9.19a1.622 1.622 0 0 0-1.622-1.621H5.946a1.622 1.622 0 0 0-1.622 1.621v18.92z" fill="#fff"/><path d="M34.054 27.027H5.946a.54.54 0 0 1-.54-.54V9.189a.54.54 0 0 1 .54-.54h28.108a.54.54 0 0 1 .54.54v17.298a.54.54 0 0 1-.54.54zm-27.567-1.08h27.027V9.73H6.487v16.216zM35.676 33.514H4.324a3.247 3.247 0 0 1-3.243-3.244V28.65a.54.54 0 0 1 .54-.54h36.757a.54.54 0 0 1 .54.54v1.621a3.247 3.247 0 0 1-3.242 3.244zM2.162 29.189v1.081a2.162 2.162 0 0 0 2.162 2.163h31.352a2.162 2.162 0 0 0 2.162-2.163v-1.08H2.162z" fill="#fff"/><path d="M19.508 23.784a.54.54 0 0 1-.492-.317l-4.914-10.81a.54.54 0 0 1 .716-.716l10.81 4.914a.541.541 0 0 1-.117 1.022l-4.56.912-.913 4.562a.54.54 0 0 1-.53.433zM15.683 13.52l3.622 7.973.654-3.27a.54.54 0 0 1 .424-.425l3.27-.654-7.97-3.624z" fill="#fff"/><path d="M20.105 18.712l.764-.764 4.913 4.912-.764.765-4.913-4.913z" fill="#fff"/></symbol><symbol id="to-icon-02" viewBox="0 0 40 40"><path d="M20.53 24.782a.632.632 0 0 0-.841-.3c-.513.243-1.05.444-1.598.598a.631.631 0 0 0-.449.484l-.668 3.34a.71.71 0 0 1-.694.57h-1.823a.71.71 0 0 1-.694-.57l-.668-3.34a.632.632 0 0 0-.45-.485 10.037 10.037 0 0 1-2.217-.919.632.632 0 0 0-.66.025l-2.836 1.89a.71.71 0 0 1-.893-.088l-1.289-1.29a.71.71 0 0 1-.089-.893l1.89-2.835a.631.631 0 0 0 .025-.66 10.032 10.032 0 0 1-.919-2.218.631.631 0 0 0-.484-.45l-3.34-.667a.71.71 0 0 1-.57-.695v-1.822a.71.71 0 0 1 .57-.695l3.34-.668a.631.631 0 0 0 .484-.449c.216-.773.526-1.52.92-2.218a.632.632 0 0 0-.026-.66l-1.89-2.835a.71.71 0 0 1 .09-.893L6.038 4.75a.71.71 0 0 1 .894-.089l2.834 1.89a.632.632 0 0 0 .66.025 10.034 10.034 0 0 1 2.219-.919.631.631 0 0 0 .449-.484l.668-3.34a.71.71 0 0 1 .694-.57h1.823a.71.71 0 0 1 .694.57l.668 3.34c.047.233.22.42.45.484.773.216 1.519.526 2.218.92a.632.632 0 0 0 .66-.026l2.835-1.89a.71.71 0 0 1 .893.089l1.289 1.289a.71.71 0 0 1 .089.893l-1.89 2.835a.631.631 0 0 0-.025.66c.393.699.702 1.445.919 2.219a.631.631 0 0 0 .484.449l3.34.668a.71.71 0 0 1 .57.694v1.823a.71.71 0 0 1-.57.694l-3.34.668a.632.632 0 0 0-.484.45c-.157.56-.364 1.11-.616 1.635a.632.632 0 0 0 1.139.546c.227-.473.422-.965.581-1.467l2.968-.593a1.977 1.977 0 0 0 1.585-1.933v-1.823c0-.936-.667-1.75-1.585-1.933l-2.968-.594a11.294 11.294 0 0 0-.737-1.778l1.68-2.52c.518-.778.415-1.824-.247-2.487L25.59 3.857a1.977 1.977 0 0 0-2.487-.247l-2.519 1.68a11.309 11.309 0 0 0-1.779-.738l-.593-2.968A1.976 1.976 0 0 0 16.28 0h-1.823c-.936 0-1.75.666-1.933 1.585l-.593 2.968c-.613.194-1.21.441-1.78.737L7.634 3.61a1.977 1.977 0 0 0-2.487.247L3.857 5.146a1.977 1.977 0 0 0-.246 2.487l1.679 2.519c-.296.57-.543 1.166-.737 1.779l-2.968.593A1.977 1.977 0 0 0 0 14.457v1.823c0 .936.666 1.75 1.585 1.933l2.968.593a11.3 11.3 0 0 0 .737 1.78l-1.68 2.518c-.519.779-.415 1.825.247 2.487l1.289 1.29a1.977 1.977 0 0 0 2.487.245l2.519-1.679a11.3 11.3 0 0 0 1.779.737l.593 2.968a1.977 1.977 0 0 0 1.933 1.585h1.823c.936 0 1.75-.666 1.933-1.585l.593-2.968a11.33 11.33 0 0 0 1.424-.56.632.632 0 0 0 .3-.842z" fill="#fff"/><path d="M20.839 18.878a.629.629 0 0 0 .85-.274 7.12 7.12 0 0 0 .779-3.236c0-3.914-3.185-7.099-7.1-7.099a7.06 7.06 0 0 0-4.955 2.016.632.632 0 1 0 .881.904 5.805 5.805 0 0 1 4.074-1.657 5.843 5.843 0 0 1 5.197 8.496c-.159.31-.036.69.274.85zM9.456 12.666a.632.632 0 0 0-.802.392 7.108 7.108 0 0 0 6.715 9.41 7.048 7.048 0 0 0 4.16-1.346.632.632 0 0 0-.741-1.023 5.794 5.794 0 0 1-3.42 1.106 5.843 5.843 0 0 1-5.52-7.737.631.631 0 0 0-.392-.802zM38.785 27.603l-1.827-.365a7.649 7.649 0 0 0-.4-.967l1.033-1.55c.398-.598.319-1.4-.189-1.908l-.847-.847a1.516 1.516 0 0 0-1.908-.189l-1.55 1.034a7.64 7.64 0 0 0-.966-.4l-.365-1.827a1.516 1.516 0 0 0-1.483-1.215h-1.198c-.718 0-1.341.51-1.482 1.215l-.365 1.826a7.658 7.658 0 0 0-.967.4l-1.55-1.032a1.516 1.516 0 0 0-1.908.188l-.847.847a1.516 1.516 0 0 0-.189 1.908l1.034 1.55c-.214.43-.387.88-.516 1.342a.632.632 0 0 0 1.216.34c.138-.491.334-.965.584-1.41a.632.632 0 0 0-.024-.66l-1.242-1.863a.25.25 0 0 1 .03-.314l.847-.846a.25.25 0 0 1 .314-.032l1.863 1.242a.631.631 0 0 0 .66.025c.445-.25.919-.446 1.41-.584a.631.631 0 0 0 .45-.484l.438-2.195a.25.25 0 0 1 .244-.2h1.198a.25.25 0 0 1 .244.2l.44 2.195c.046.233.22.42.448.484.492.138.966.334 1.41.584a.632.632 0 0 0 .66-.024l1.863-1.242a.25.25 0 0 1 .314.03l.847.848a.25.25 0 0 1 .03.314l-1.241 1.863a.631.631 0 0 0-.025.66c.25.444.447.918.584 1.41a.631.631 0 0 0 .485.448l2.195.44a.25.25 0 0 1 .2.244v1.197a.25.25 0 0 1-.2.244l-2.195.44a.631.631 0 0 0-.485.448 6.375 6.375 0 0 1-.584 1.41.632.632 0 0 0 .025.66l1.242 1.863a.25.25 0 0 1-.031.314l-.847.847a.25.25 0 0 1-.314.031l-1.863-1.242a.632.632 0 0 0-.66-.025c-.444.25-.919.447-1.41.584a.631.631 0 0 0-.45.485l-.438 2.195a.25.25 0 0 1-.244.2h-1.198a.25.25 0 0 1-.244-.2l-.439-2.195a.632.632 0 0 0-.449-.485 6.372 6.372 0 0 1-1.41-.584.632.632 0 0 0-.66.025L24.02 36.54a.25.25 0 0 1-.314-.031l-.846-.847a.25.25 0 0 1-.032-.314l1.242-1.863a.631.631 0 0 0 .025-.66 6.374 6.374 0 0 1-.584-1.41.631.631 0 0 0-.484-.449l-2.195-.439a.25.25 0 0 1-.2-.244v-1.198a.25.25 0 0 1 .2-.244l.134-.027a.632.632 0 1 0-.248-1.238l-.134.027a1.516 1.516 0 0 0-1.216 1.482v1.198c0 .718.512 1.342 1.216 1.483l1.826.365c.111.331.245.654.4.967l-1.033 1.55c-.398.597-.319 1.4.19 1.907l.846.847c.508.508 1.31.587 1.908.189l1.55-1.033c.312.155.636.289.966.4l.366 1.827A1.516 1.516 0 0 0 29.085 40h1.198c.718 0 1.342-.511 1.483-1.215l.365-1.827c.331-.111.654-.245.967-.4l1.55 1.033c.597.398 1.4.319 1.907-.189l.847-.847c.508-.508.587-1.31.19-1.908l-1.034-1.55c.155-.312.29-.635.4-.966l1.827-.365A1.516 1.516 0 0 0 40 30.283v-1.198c0-.718-.511-1.341-1.215-1.482z" fill="#fff"/><path d="M29.684 27.41a2.276 2.276 0 0 1 2.274 2.274.632.632 0 0 0 1.263 0 3.541 3.541 0 0 0-3.537-3.537 3.541 3.541 0 0 0-3.537 3.537 3.541 3.541 0 0 0 3.537 3.537c.79 0 1.537-.255 2.161-.737a.632.632 0 0 0-.772-1 2.276 2.276 0 0 1-3.662-1.8 2.276 2.276 0 0 1 2.273-2.273zM19.216 15.368a3.852 3.852 0 0 0-3.847-3.848 3.852 3.852 0 0 0-3.848 3.848 3.852 3.852 0 0 0 3.848 3.848 3.852 3.852 0 0 0 3.848-3.848zm-6.432 0a2.588 2.588 0 0 1 2.585-2.584 2.588 2.588 0 0 1 2.584 2.584 2.588 2.588 0 0 1-2.584 2.585 2.588 2.588 0 0 1-2.585-2.585z" fill="#fff"/></symbol><symbol id="to-icon-03" viewBox="0 0 40 40"><path d="M6.667 16.977h8.666a.666.666 0 1 0 0-1.334H6.667a.667.667 0 1 0 0 1.334zM24 19.643H6.667a.667.667 0 1 0 0 1.334H24a.666.666 0 1 0 0-1.334zM24 23.643H6.667a.667.667 0 1 0 0 1.334H24a.666.666 0 1 0 0-1.334z" fill="#fff"/><path d="M36.048 1.69l-22.761-.047a3.958 3.958 0 0 0-3.954 3.954v3.416l-5.38.011A3.958 3.958 0 0 0 0 12.977v14.094a3.957 3.957 0 0 0 3.953 3.953H8v6.667a.667.667 0 0 0 1.16.448l6.47-7.116 11.083-.046a3.958 3.958 0 0 0 3.954-3.952v-.076l3.506 3.858a.668.668 0 0 0 1.16-.449v-6.667h.714A3.957 3.957 0 0 0 40 19.74V5.643a3.958 3.958 0 0 0-3.952-3.953zm-6.715 25.334a2.623 2.623 0 0 1-2.622 2.62l-11.38.046a.667.667 0 0 0-.491.218l-5.507 6.058v-5.61a.666.666 0 0 0-.666-.666H3.953a2.623 2.623 0 0 1-2.62-2.62V12.978a2.623 2.623 0 0 1 2.622-2.62L10 10.344h.001l16.712-.035a2.623 2.623 0 0 1 2.62 2.62v14.095zm9.334-7.287a2.622 2.622 0 0 1-2.62 2.62h-1.38a.667.667 0 0 0-.667.666v5.61l-3.333-3.667V12.93a3.958 3.958 0 0 0-3.955-3.953l-16.045.032V5.596a2.623 2.623 0 0 1 2.618-2.62l22.761.047h.001a2.623 2.623 0 0 1 2.62 2.62v14.094z" fill="#fff"/></symbol><symbol id="to-icon-04" viewBox="0 0 40 40"><path d="M33.556 5.858A19.87 19.87 0 0 0 19.414 0a.586.586 0 0 0-.586.586v.596A18.695 18.695 0 0 0 6.101 6.686 18.705 18.705 0 0 0 .586 20c0 4.833 1.81 9.388 5.107 12.892l-.421.421a.586.586 0 0 0 0 .83A19.87 19.87 0 0 0 19.414 40a19.87 19.87 0 0 0 14.142-5.858A19.869 19.869 0 0 0 39.414 20a19.87 19.87 0 0 0-5.858-14.142zM1.758 20A17.54 17.54 0 0 1 6.929 7.515a17.531 17.531 0 0 1 11.9-5.16v1.172A16.367 16.367 0 0 0 7.757 8.344a16.513 16.513 0 0 0-3.074 4.239.586.586 0 1 0 1.046.528 15.341 15.341 0 0 1 2.856-3.939A15.203 15.203 0 0 1 18.828 4.7v.573c0 .324.262.586.586.586 7.797 0 14.14 6.344 14.14 14.141s-6.343 14.14-14.14 14.14c-3.777 0-7.328-1.47-9.999-4.141a.586.586 0 0 0-.828 0l-.406.406A15.203 15.203 0 0 1 4.1 20c0-1.646.258-3.262.766-4.805a.586.586 0 0 0-1.114-.366c-.546 1.66-.823 3.4-.823 5.171 0 4.207 1.566 8.173 4.422 11.234l-.83.829A17.532 17.532 0 0 1 1.758 20zm17.656 18.828a18.697 18.697 0 0 1-12.893-5.106l2.065-2.066.423-.422a15.204 15.204 0 0 0 10.405 4.078c8.443 0 15.313-6.869 15.313-15.312 0-8.247-6.554-14.992-14.727-15.301V1.18C30.112 1.49 38.242 9.814 38.242 20c0 10.382-8.446 18.828-18.828 18.828z" fill="#fff"/><path d="M19.414 32.969c7.151 0 12.969-5.818 12.969-12.969 0-7.15-5.818-12.969-12.969-12.969a.586.586 0 0 0-.586.586v.6c-6.04.298-10.9 5.157-11.196 11.197h-.6a.586.586 0 0 0-.587.586c0 7.15 5.818 12.969 12.97 12.969zm0-20.078c3.92 0 7.11 3.189 7.11 7.109s-3.19 7.11-7.11 7.11c-3.92 0-7.11-3.19-7.11-7.11a.586.586 0 0 0-.585-.586h-.565a8.294 8.294 0 0 1 7.674-7.674v.565c0 .323.262.586.586.586zm-.586-3.5v1.175c-4.746.291-8.557 4.101-8.848 8.848H8.805c.295-5.393 4.63-9.728 10.023-10.023zm-7.675 11.195c.302 4.294 3.892 7.695 8.261 7.695 4.566 0 8.281-3.715 8.281-8.281 0-4.37-3.401-7.96-7.695-8.26V8.216c6.234.307 11.21 5.475 11.21 11.783 0 6.505-5.291 11.797-11.796 11.797-6.308 0-11.476-4.977-11.782-11.211h3.521z" fill="#fff"/></symbol></svg>